<?xml version="1.0" encoding="UTF-8"?>
<svg xmlns="http://www.w3.org/2000/svg" xmlns:xlink="http://www.w3.org/1999/xlink" width="14pt" height="14pt" viewBox="0 0 14 14" version="1.1">
<g id="surface1">
<path style=" stroke:none;fill-rule:nonzero;fill:rgb(0.392157%,0%,0.784314%);fill-opacity:1;" d="M 7 0 C 3.140625 0 0 3.140625 0 7 C 0 10.859375 3.140625 14 7 14 C 10.859375 14 14 10.859375 14 7 C 14 3.140625 10.859375 0 7 0 Z M 7 13.171875 C 3.597656 13.171875 0.828125 10.402344 0.828125 7 C 0.828125 3.597656 3.597656 0.828125 7 0.828125 C 10.402344 0.828125 13.171875 3.597656 13.171875 7 C 13.171875 10.402344 10.402344 13.171875 7 13.171875 Z M 7 13.171875 "/>
<path style=" stroke:none;fill-rule:nonzero;fill:rgb(0.392157%,0%,0.784314%);fill-opacity:1;" d="M 6.898438 2.789062 L 4.902344 10.621094 C 4.890625 10.671875 4.914062 10.726562 4.960938 10.746094 C 5.011719 10.765625 5.066406 10.75 5.097656 10.707031 L 7.023438 7.699219 L 8.90625 10.703125 C 8.925781 10.738281 8.960938 10.753906 8.996094 10.753906 C 9.007812 10.753906 9.023438 10.753906 9.035156 10.746094 C 9.085938 10.726562 9.113281 10.671875 9.097656 10.621094 L 7.105469 2.789062 C 7.078125 2.695312 6.921875 2.695312 6.898438 2.789062 Z M 7.117188 7.441406 C 7.097656 7.410156 7.0625 7.394531 7.027344 7.394531 C 6.988281 7.394531 6.953125 7.410156 6.933594 7.441406 L 5.273438 10.035156 L 7 3.25 L 8.722656 10.007812 Z M 7.117188 7.441406 "/>
<path style=" stroke:none;fill-rule:nonzero;fill:rgb(0.392157%,0%,0.784314%);fill-opacity:1;" d="M 8.996094 10.789062 C 8.945312 10.789062 8.902344 10.761719 8.875 10.722656 L 7.023438 7.761719 L 5.125 10.722656 C 5.089844 10.78125 5.011719 10.804688 4.949219 10.777344 C 4.886719 10.75 4.851562 10.679688 4.871094 10.613281 L 6.863281 2.78125 C 6.878906 2.726562 6.933594 2.6875 7 2.6875 C 7.066406 2.6875 7.121094 2.722656 7.136719 2.78125 L 9.128906 10.613281 C 9.148438 10.679688 9.113281 10.75 9.050781 10.777344 C 9.03125 10.785156 9.011719 10.789062 8.996094 10.789062 Z M 7.023438 7.636719 L 7.054688 7.679688 L 8.933594 10.6875 C 8.949219 10.714844 8.988281 10.730469 9.023438 10.714844 C 9.058594 10.699219 9.074219 10.664062 9.066406 10.628906 L 7.070312 2.796875 C 7.0625 2.765625 7.027344 2.753906 7 2.753906 C 6.972656 2.753906 6.9375 2.765625 6.929688 2.796875 L 4.933594 10.628906 C 4.925781 10.664062 4.941406 10.699219 4.976562 10.714844 C 5.007812 10.726562 5.046875 10.714844 5.066406 10.6875 Z M 5.1875 10.226562 L 7 3.113281 L 8.808594 10.210938 L 7.085938 7.460938 C 7.058594 7.417969 6.988281 7.417969 6.964844 7.460938 Z M 5.1875 10.226562 "/>
</g>
</svg>
